<svg 
  viewBox="0 0 200 50" 
  width="auto" 
  height="auto" 
  preserveAspectRatio="xMidYMid meet"
  role="img"
  aria-label="Porfin logo"
  xmlns="http://www.w3.org/2000/svg"
>
  <title>Porfin</title>
  <desc>Porfin WhatsApp automation platform logo</desc>

  <!-- Background circle representing automation/connectivity -->
  <circle 
    cx="35" 
    cy="25" 
    r="20" 
    fill="#2563eb" 
    opacity="0.1"
  />

  <!-- Main "P" letterform -->
  <path 
    d="M25 10h15c5.523 0 10 4.477 10 10s-4.477 10-10 10h-5v10h-10V10zm10 15h5c2.761 0 5-2.239 5-5s-2.239-5-5-5h-5v10z"
    fill="#2563eb"
  />

  <!-- Text "orfin" -->
  <path 
    d="M65 20h8v20h-8v-2c-1.5 1.5-3.5 2.5-6 2.5-5.5 0-10-4.5-10-10s4.5-10 10-10c2.5 0 4.5 1 6 2.5v-3zm-5 15c2.761 0 5-2.239 5-5s-2.239-5-5-5-5 2.239-5 5 2.239 5 5 5z"
    fill="#64748b"
  />
  <path 
    d="M85 15h8v5h-8v20h-8V20h-4v-5h4v-2c0-5 3-8 8-8 2 0 4 .5 5 1v6c-.5-.5-1.5-1-3-1-1.5 0-2 1-2 2v2z"
    fill="#64748b"
  />
  <path 
    d="M105 20h8v20h-8v-2c-1.5 1.5-3.5 2.5-6 2.5-5.5 0-10-4.5-10-10s4.5-10 10-10c2.5 0 4.5 1 6 2.5v-3zm-5 15c2.761 0 5-2.239 5-5s-2.239-5-5-5-5 2.239-5 5 2.239 5 5 5z"
    fill="#64748b"
  />
  <path 
    d="M125 10h8v30h-8V10z"
    fill="#64748b"
  />
  <path 
    d="M145 20h8v20h-8v-2c-1.5 1.5-3.5 2.5-6 2.5-5.5 0-10-4.5-10-10s4.5-10 10-10c2.5 0 4.5 1 6 2.5v-3zm-5 15c2.761 0 5-2.239 5-5s-2.239-5-5-5-5 2.239-5 5 2.239 5 5 5z"
    fill="#64748b"
  />

  <!-- Accent dot -->
  <circle 
    cx="175" 
    cy="25" 
    r="5" 
    fill="#7c3aed"
  />

  <!-- Hidden element for minimum clear space reference -->
  <rect 
    width="184" 
    height="34" 
    x="8" 
    y="8" 
    fill="none"
    stroke="none"
  />
</svg>